<svg width="652" height="67" viewBox="0 0 652 67" fill="none" xmlns="http://www.w3.org/2000/svg">
<path d="M47.2568 42.3738C44.7589 42.1738 42.2519 42.1141 39.7473 42.1952C36.8821 42.2543 34.0257 42.5343 31.2032 43.0327C25.5511 44.0475 20.1022 45.9825 15.0718 48.7612C14.2374 49.219 12.2321 50.104 11.7899 50.9107C11.5535 51.3435 11.2197 51.9604 10.8359 52.7142C10.2106 53.7882 9.70594 54.9286 9.3312 56.1144C9.1087 57.0273 9.18658 57.5438 8.9752 58.7414C8.78342 59.8232 8.48912 60.8842 8.09631 61.9099L10.2212 63.691C10.1402 63.6057 10.0685 63.5122 10.0071 63.4118C7.55396 59.618 14.4571 54.2161 16.9603 52.3708C21.2578 49.2368 26.1527 47.0254 31.3395 45.8746C36.681 44.7304 42.178 44.5105 47.5933 45.2241L47.2568 42.3822" fill="white"/>
<path d="M119.392 1.82587L119.298 1.3457C117.298 1.53833 115.582 1.62487 113.774 1.62487C112.058 1.62487 109.583 1.52995 107.296 1.3457L107.199 1.82587C109.964 2.78899 110.815 4.13458 109.583 7.211C105.689 17.0209 94.4386 42.3162 88.4449 55.303C82.7294 42.9918 68.7284 12.8865 65.9666 6.25066C64.8235 3.73816 65.5855 2.69129 68.2528 1.82587L68.1582 1.3457C65.5855 1.53833 61.7752 1.62487 59.87 1.62487C57.9648 1.62487 54.822 1.52995 52.3438 1.3457L52.2493 1.82587C54.7816 2.85452 56.8264 4.81603 57.9648 7.3087C63.5858 18.4754 78.0624 49.435 85.3021 65.688H86.6343C94.6305 47.2212 107.678 19.8126 114.244 6.541C114.708 5.42689 115.408 4.42779 116.297 3.61342C117.185 2.79904 118.239 2.18901 119.387 1.82587" fill="white"/>
<path d="M167.033 59.0512C161.415 47.8845 146.935 16.83 139.696 0.671875H138.363C130.362 19.041 117.315 46.5473 110.74 59.8189C110.26 60.9231 109.554 61.9136 108.668 62.726C107.782 63.5383 106.736 64.1544 105.597 64.534L105.692 65.0142C107.654 64.815 109.626 64.7218 111.599 64.735C113.638 64.7252 115.674 64.8539 117.696 65.1203L117.79 64.5452C115.028 63.5821 114.175 62.2365 115.409 59.0624C116.742 55.7933 118.933 50.7935 121.409 45.104H152.281C155.424 51.9325 157.994 57.6079 159.042 60.1093C160.185 62.5129 159.423 63.5709 156.756 64.534L156.948 65.1091C159.606 64.8387 162.277 64.7101 164.95 64.7239C167.33 64.7239 170.187 64.8188 172.57 65.003L172.665 64.5229C170.181 63.4547 168.179 61.5017 167.044 59.04M122.657 42.1142C127.324 31.3411 132.948 18.84 136.564 11.0485C139.901 18.0723 145.898 31.0536 150.946 42.1142H122.657Z" fill="white"/>
<path d="M236.737 1.63631C235.146 1.63982 233.556 1.54659 231.976 1.35715L231.881 1.83731C232.745 2.05826 233.507 2.56761 234.043 3.28154C234.58 3.99546 234.858 4.8714 234.832 5.76519C235.11 10.5724 235.5 18.6515 235.5 33.1766C235.5 41.063 235.594 48.2767 235.692 53.6618C222.931 39.5276 207.114 21.7363 189.778 1.5386C188.16 1.63352 186.538 1.63352 184.919 1.63352C183.49 1.63352 181.582 1.5386 179.301 1.35435L179.204 1.83452C180.34 2.2765 181.3 3.0808 181.937 4.12381C182.574 5.16682 182.852 6.39081 182.728 7.60769C182.825 10.2039 182.92 18.1853 182.92 33.1905C182.92 48.098 182.641 55.803 182.349 60.6019C182.384 61.5001 182.109 62.3827 181.571 63.1013C181.033 63.8198 180.265 64.3302 179.396 64.5465L179.49 65.0267C181.136 64.8479 182.789 64.7547 184.444 64.7475C186.036 64.744 187.627 64.8372 189.208 65.0267L189.303 64.5465C188.452 64.2971 187.705 63.7781 187.172 63.0671C186.64 62.3561 186.351 61.4913 186.349 60.6019C186.071 55.7946 185.681 47.6206 185.681 33.1905C185.681 21.1696 185.681 14.3384 185.492 7.99015C201.877 26.3593 218.259 44.6364 236.737 66.3695H238.643C238.364 60.0212 238.262 48.098 238.262 33.1877C238.262 18.1825 238.54 10.5752 238.835 5.77635C238.77 4.87177 239.033 3.97417 239.576 3.24918C240.119 2.5242 240.905 2.02075 241.788 1.83173L241.691 1.35156C240.046 1.53028 238.392 1.62346 236.737 1.63073" fill="white"/>
<path d="M251.1 1.63672C250.558 4.23111 249.793 6.77356 248.814 9.23564L249.289 9.62089C255.194 5.38872 263.51 3.94543 272.274 3.94543H273.798V33.1825C273.798 48.09 273.703 57.3249 273.609 60.2087C273.724 61.1674 273.488 62.1355 272.945 62.9323C272.401 63.7291 271.587 64.3001 270.655 64.5385L270.75 65.0187C272.655 64.8261 275.322 64.7395 277.425 64.7395C279.614 64.7395 282.375 64.8345 284.186 65.0187L284.283 64.5385C283.351 64.3006 282.537 63.7298 281.993 62.9328C281.449 62.1359 281.213 61.1675 281.33 60.2087C281.235 57.3249 281.138 48.0928 281.138 33.1825V3.94543H282.662C291.426 3.94543 299.644 5.38872 305.552 9.62089L306.027 9.14072C305.092 6.69608 304.328 4.1886 303.741 1.63672H251.1Z" fill="white"/>
<path d="M401.153 37.2185C399.343 37.4111 396.675 37.4977 394.478 37.4977C392.281 37.4977 389.619 37.4028 387.803 37.2185L387.708 37.7015C388.64 37.9394 389.454 38.5098 389.998 39.3061C390.541 40.1025 390.778 41.0702 390.662 42.0285C390.715 43.5751 390.768 46.6041 390.804 49.7503C390.715 51.9271 390.085 54.047 388.971 55.9171C387.501 58.3326 385.301 60.2135 382.691 61.2855C382.265 61.4418 381.857 61.6149 381.412 61.7545L381.311 61.7852C377.891 62.8566 374.326 63.3932 370.743 63.3764C355.982 63.3764 343.503 51.5481 343.503 33.179C343.503 14.6172 356.077 2.9815 370.743 2.9815C382.079 2.9815 391.127 7.59892 395.604 17.0236L396.175 16.831L395.794 9.03942C390.009 3.07083 380.199 0 370.768 0C351.816 0 335.445 12.984 335.445 33.1818C335.445 53.2818 351.827 66.3635 370.768 66.3635C376.106 66.4814 381.392 65.2799 386.159 62.8648C390.926 60.4497 395.029 56.8951 398.105 52.514C398.105 48.762 398.199 44.8202 398.297 41.9364C398.201 40.9929 398.446 40.0461 398.988 39.2691C399.529 38.492 400.332 37.9366 401.248 37.7042L401.153 37.2185Z" fill="white"/>
<path d="M464.327 59.0512C458.709 47.8845 444.232 16.83 436.99 0.671875H435.658C427.656 19.041 414.609 46.5473 408.034 59.8189C407.555 60.9231 406.849 61.9136 405.963 62.726C405.077 63.5383 404.03 64.1544 402.892 64.534L402.986 65.0142C404.949 64.815 406.921 64.7219 408.894 64.735C410.932 64.7252 412.969 64.8539 414.99 65.1203L415.085 64.5452C412.323 63.5821 411.469 62.2365 412.704 59.0624C414.036 55.7933 416.228 50.7935 418.703 45.104H449.575C452.718 51.9325 455.288 57.6079 456.337 60.1093C457.48 62.5129 456.718 63.5709 454.051 64.534L454.242 65.1091C456.893 64.8358 459.557 64.7035 462.222 64.7127C464.603 64.7127 467.459 64.8076 469.843 64.9919L469.937 64.5117C467.453 63.4437 465.451 61.4907 464.316 59.0289M419.946 42.1225C424.613 31.3495 430.237 18.8484 433.853 11.0569C437.19 18.0807 443.19 31.062 448.235 42.1225H419.946Z" fill="white"/>
<path d="M536.916 65.1238C535.954 65.0607 535.007 64.8489 534.11 64.4957C532.665 63.9383 531.329 63.1304 530.163 62.1088C527.251 59.3032 524.784 56.0664 522.848 52.5111C520.823 48.0051 518.078 43.8616 514.721 40.2445C511.696 37.5935 507.821 36.1248 503.805 36.1072C506.796 36.3126 509.798 35.9081 512.63 34.918C516.045 33.7773 518.972 31.504 520.929 28.472C522.768 25.6571 523.705 22.3452 523.616 18.9804C523.619 18.7993 523.608 18.6183 523.585 18.4388C523.533 17.3221 523.359 16.2146 523.065 15.1362C522.259 12.3196 520.724 9.76784 518.615 7.7411C516.493 5.60913 513.956 3.93875 511.162 2.83407C508.369 1.72938 505.379 1.21408 502.378 1.32027H497.995C493.545 1.32027 481.362 1.42635 477.805 1.59944V2.0796C479.424 2.27223 480.664 3.13764 480.759 6.11914C480.853 8.91081 480.948 18.1401 480.948 33.1453C480.948 48.0528 480.853 57.2848 480.759 60.1714C480.875 61.1302 480.639 62.0986 480.096 62.8955C479.552 63.6925 478.738 64.2633 477.805 64.5013L477.9 64.9814C479.808 64.7888 482.472 64.7023 484.575 64.7023C486.767 64.7023 489.528 64.7972 491.339 64.9814L491.434 64.5013C490.506 64.2656 489.694 63.7006 489.15 62.9106C488.605 62.1207 488.364 61.1595 488.471 60.2049C488.377 57.3211 488.282 48.0891 488.282 34.9096V32.1179C488.455 5.05831 488.544 4.08402 488.56 3.43077C497.786 3.35539 507.776 1.79206 513.751 10.6026C514.938 12.2707 515.772 14.165 516.203 16.1689C516.633 18.1729 516.651 20.244 516.254 22.255C516.083 24.2542 515.489 26.1937 514.51 27.943C513.53 29.6924 512.19 31.2111 510.577 32.3971C506.561 34.5009 502.062 35.5015 497.536 35.2976C496.718 35.3256 496.304 35.3256 495.834 35.32V35.9509C496.095 35.9649 495.811 35.99 496.234 36.0402C502.948 36.8386 507.131 41.6236 510.141 47.3269C512.098 51.9679 514.673 56.3214 517.795 60.2691C523.393 66.2154 532.672 68.9568 540.023 65.4309L539.767 64.7832C538.846 65.0553 537.886 65.1695 536.927 65.121" fill="white"/>
<path d="M559.92 1.64789C553.348 1.64789 548.3 1.74559 544.584 1.92705V2.40722C546.205 2.59984 547.443 3.46526 547.538 6.44676C547.632 9.23843 547.73 18.4677 547.73 33.4729C547.73 48.3804 547.632 57.6124 547.538 60.499C547.443 63.3856 546.3 64.251 544.584 64.5386V65.0187C549.918 65.404 554.875 65.4989 560.206 65.4989C588.781 65.4989 598.31 47.9951 598.31 32.6075C598.31 9.62088 581.261 1.63672 559.928 1.63672M559.355 63.0003C558.02 63.0003 556.688 63.0003 555.356 62.9026C555.164 57.6152 555.078 48.7656 555.078 33.4729C555.078 19.4308 555.172 10.6789 555.267 3.94543C556.602 3.85051 557.65 3.85051 558.791 3.85051C582.223 3.85051 590.319 16.6419 590.319 32.6047C590.319 52.2245 580.51 62.9976 559.364 62.9976" fill="white"/>
<path d="M651.524 57.0451C645.239 61.7603 637.009 62.7206 626.148 62.7206H616.444C616.349 59.0635 616.255 48.0057 616.255 33.771C637.209 33.8659 641.768 33.2378 642.911 36.6995L643.386 36.6046C643.102 35.2627 642.975 33.8919 643.008 32.5204C642.98 31.0917 643.107 29.6642 643.386 28.2631L642.911 28.1681C641.862 31.3423 637.209 31.172 616.255 31.2697C616.255 18.3834 616.349 8.37802 616.444 4.43619C619.209 4.24635 624.379 4.15702 626.952 4.15702C635.524 4.15702 642.952 5.11735 648.382 9.82969L648.938 9.44723C647.973 7.01272 647.208 4.503 646.652 1.94323H612.636C610.445 1.94323 607.78 1.84831 605.872 1.66406L605.778 2.14423C606.71 2.38219 607.525 2.95302 608.068 3.74995C608.612 4.54689 608.848 5.51533 608.731 6.47411C608.826 9.26577 608.921 18.495 608.921 33.5002C608.921 48.4077 608.826 57.6426 608.731 60.5264C608.848 61.4851 608.612 62.4536 608.068 63.2505C607.525 64.0474 606.71 64.6183 605.778 64.8562L605.872 65.3364C607.78 65.1438 610.445 65.0572 612.636 65.0572H649.906C650.762 62.8462 651.043 59.2869 651.997 57.4583L651.524 57.0451Z" fill="white"/>
<path d="M61.4358 59.0512C55.8148 47.8845 41.3382 16.83 34.1013 0.671875H32.7663C24.7534 19.041 11.7148 46.5473 5.14538 59.8189C4.66512 60.9231 3.95883 61.9135 3.07237 62.7258C2.18592 63.5382 1.13913 64.1542 0 64.534L0.0945637 65.0142C2.05734 64.8154 4.02931 64.7223 6.00201 64.735C8.04054 64.7253 10.0774 64.854 12.0986 65.1203L12.1932 64.5452C9.43134 63.5821 8.57748 62.2365 9.81237 59.0624C11.1446 55.7933 13.3363 50.7935 15.8144 45.104L17.0521 42.1225C21.7191 31.3495 27.3428 18.8484 30.9585 11.0569C34.296 18.0779 40.2925 31.062 45.3405 42.1225L46.6727 45.104C49.8184 51.9325 52.3911 57.6079 53.4368 60.1093C54.5799 62.5129 53.8179 63.5709 51.1506 64.534L51.3425 65.1091C54.0011 64.8388 56.6721 64.7102 59.3443 64.7239C61.7251 64.7239 64.5842 64.8188 66.965 65.003L67.0596 64.5229C64.5759 63.4542 62.5739 61.5014 61.4386 59.04" fill="white"/>
</svg>
