<svg width="76" height="75" viewBox="0 0 76 75" fill="none" xmlns="http://www.w3.org/2000/svg">
<path d="M38.4862 0C31.0667 0 23.8138 2.19934 17.6447 6.31989C11.4756 10.4404 6.66733 16.2971 3.828 23.1494C0.988666 30.0016 0.245768 37.5416 1.69325 44.8159C3.14073 52.0902 6.71357 58.772 11.96 64.0165C17.2064 69.261 23.8907 72.8325 31.1677 74.2795C38.4446 75.7264 45.9874 74.9838 52.8422 72.1455C59.6969 69.3072 65.5558 64.5007 69.6778 58.3339C73.7999 52.167 76.0001 44.9168 76.0001 37.5C76.0001 27.5544 72.0477 18.0161 65.0125 10.9835C57.9773 3.95088 48.4355 0 38.4862 0M19.4817 38.76L19.6393 38.505L29.3929 23.2425C29.4263 23.1931 29.4721 23.1534 29.5258 23.1275C29.5795 23.1015 29.6391 23.0903 29.6986 23.0949C29.7581 23.0994 29.8152 23.1197 29.8643 23.1535C29.9134 23.1873 29.9527 23.2336 29.9781 23.2875C31.7715 26.6734 32.5945 30.4887 32.3565 34.3125C31.9102 35.7909 31.264 37.2014 30.4358 38.505C30.3232 38.715 30.2032 38.925 30.0606 39.1275C30.0297 39.1723 29.9882 39.2087 29.9397 39.2336C29.8913 39.2585 29.8375 39.271 29.783 39.27H19.7668C19.7067 39.2715 19.6473 39.2566 19.595 39.2269C19.5427 39.1971 19.4995 39.1536 19.4702 39.1011C19.4408 39.0486 19.4264 38.9891 19.4284 38.9289C19.4305 38.8688 19.4489 38.8104 19.4817 38.76M62.9753 44.01C62.9759 44.0765 62.957 44.1418 62.9211 44.1978C62.8851 44.2537 62.8335 44.298 62.7727 44.325C61.0929 44.9805 59.5825 46.0059 58.3536 47.325C55.6075 51.1425 53.5143 56.6025 48.825 56.6025H29.2729C27.623 56.6 25.9898 56.2728 24.4665 55.6394C22.9432 55.0059 21.5596 54.0788 20.3947 52.9109C19.2298 51.7429 18.3065 50.3571 17.6774 48.8325C17.0483 47.3078 16.7258 45.6742 16.7282 44.025V43.8C16.7287 43.7562 16.7378 43.7129 16.7551 43.6726C16.7723 43.6323 16.7973 43.5957 16.8287 43.5651C16.86 43.5345 16.8971 43.5103 16.9378 43.494C16.9785 43.4776 17.022 43.4695 17.0659 43.47H27.9449C27.9974 43.4697 28.0495 43.4805 28.0976 43.5017C28.1458 43.5228 28.1889 43.5538 28.2243 43.5927C28.2597 43.6316 28.2865 43.6775 28.303 43.7275C28.3195 43.7774 28.3253 43.8302 28.32 43.8825C28.2354 44.6017 28.366 45.3299 28.6951 45.975C29.0122 46.6151 29.502 47.1538 30.1092 47.5302C30.7164 47.9066 31.4169 48.1057 32.1314 48.105H37.5409V43.8975H32.2064C32.1442 43.8962 32.0835 43.8782 32.0307 43.8452C31.9779 43.8122 31.935 43.7656 31.9065 43.7103C31.8781 43.6549 31.8651 43.5929 31.8691 43.5308C31.873 43.4687 31.8936 43.4088 31.9288 43.3575C31.9889 43.2675 32.0489 43.1775 32.1239 43.0725C32.6266 42.3525 33.3468 41.2425 34.0671 39.975C34.5684 39.1078 35.0169 38.2112 35.4101 37.29C35.4851 37.125 35.5452 36.9525 35.6127 36.7875C35.7177 36.495 35.8228 36.2175 35.8978 35.9475C35.9728 35.6775 36.0403 35.475 36.1004 35.25C36.2781 34.4423 36.3637 33.617 36.3555 32.79C36.3555 32.4525 36.3555 32.1 36.3104 31.77C36.2654 31.44 36.2504 31.02 36.2054 30.6675C36.1604 30.315 36.1154 30.0225 36.0553 29.6925C35.9728 29.205 35.8678 28.7175 35.7477 28.23L35.7027 28.0425C35.6127 27.705 35.5302 27.39 35.4251 27.0525C35.11 26.0025 34.7724 24.975 34.3972 24C34.2622 23.625 34.1121 23.25 33.9546 22.875C33.7295 22.32 33.4969 21.8175 33.2868 21.345C33.1743 21.1275 33.0843 20.9325 32.9942 20.73C32.9042 20.5275 32.7841 20.28 32.6716 20.0625C32.5591 19.845 32.5065 19.74 32.4465 19.59L31.7863 18.375C31.7665 18.3382 31.7577 18.2965 31.761 18.2549C31.7643 18.2133 31.7795 18.1734 31.8049 18.1402C31.8302 18.107 31.8645 18.0818 31.9038 18.0676C31.9431 18.0533 31.9856 18.0507 32.0264 18.06L36.1529 19.185H36.1829L36.7231 19.3425L37.3233 19.5075L37.5409 19.5675V17.145C37.5389 16.8647 37.5923 16.5867 37.6981 16.327C37.8038 16.0673 37.9597 15.8311 38.157 15.6318C38.3543 15.4325 38.589 15.2741 38.8476 15.1657C39.1062 15.0573 39.3837 15.001 39.6642 15C39.9439 14.998 40.2212 15.0529 40.4791 15.1612C40.737 15.2694 40.9703 15.4289 41.1647 15.63C41.5599 16.0298 41.7834 16.568 41.7875 17.13V20.7675L42.2376 20.9025C42.2716 20.9171 42.3043 20.9346 42.3352 20.955C42.4402 21.03 42.5978 21.15 42.7928 21.3C42.9879 21.45 43.1154 21.57 43.3105 21.7275C43.7082 22.05 44.1883 22.4775 44.706 22.935C44.8411 23.055 44.9761 23.175 45.1037 23.31C45.7714 23.9325 46.5217 24.66 47.242 25.47C47.4445 25.7025 47.6396 25.9275 47.8422 26.175C48.0448 26.4225 48.2548 26.6625 48.4349 26.9025C48.6825 27.225 48.9376 27.5625 49.1852 27.915C49.2902 28.08 49.4178 28.2525 49.5153 28.4175C49.8055 28.8563 50.0734 29.3093 50.3181 29.775C50.4231 29.985 50.5282 30.2175 50.6182 30.4425C50.8945 31.0433 51.1058 31.6719 51.2484 32.3175C51.2927 32.4515 51.3229 32.5897 51.3385 32.73V32.76C51.3796 32.9501 51.4047 33.1432 51.4135 33.3375C51.4758 33.9816 51.4403 34.6315 51.3085 35.265C51.2484 35.535 51.1734 35.79 51.0834 36.0675C50.9933 36.345 50.8958 36.6 50.7758 36.8625C50.5441 37.4067 50.2681 37.931 49.9505 38.43C49.8454 38.6175 49.7179 38.805 49.5978 39C49.4778 39.195 49.3202 39.375 49.2002 39.5625C49.0801 39.75 48.8476 40.035 48.66 40.2525C48.5 40.4796 48.3271 40.6975 48.1423 40.905C47.8872 41.2125 47.6396 41.4975 47.392 41.775C47.2394 41.9614 47.0766 42.1392 46.9043 42.3075C46.7393 42.495 46.5667 42.66 46.4167 42.81C46.1541 43.0725 45.944 43.2675 45.7639 43.44L45.3363 43.815C45.276 43.8735 45.1951 43.9058 45.1112 43.905H41.825V48.1125H45.9515C46.8738 48.1138 47.7658 47.7838 48.4649 47.1825C49.3635 46.3981 50.2153 45.5616 51.0159 44.6775C51.0566 44.629 51.1118 44.5948 51.1734 44.58L62.5851 41.28C62.6351 41.2654 62.6877 41.2626 62.7389 41.272C62.7901 41.2814 62.8384 41.3025 62.88 41.3339C62.9215 41.3652 62.9552 41.4058 62.9782 41.4525C63.0013 41.4991 63.0131 41.5505 63.0128 41.6025L62.9753 44.01Z" fill="white"/>
</svg>
