<svg width="101" height="75" viewBox="0 0 101 75" fill="none" xmlns="http://www.w3.org/2000/svg">
<path d="M84.8585 6.28125C78.3546 3.30494 71.4887 1.19322 64.4359 0C63.4674 1.72495 62.5908 3.49993 61.81 5.3175C54.2971 4.1858 46.657 4.1858 39.1441 5.3175C38.3691 3.50047 37.4988 1.72551 36.5369 0C29.4799 1.20309 22.6096 3.31963 16.0994 6.29625C4.56867 22.6136 -0.647179 42.5593 1.42025 62.43C8.98929 68.0206 17.4614 72.2723 26.4682 75C28.4964 72.2734 30.2909 69.3806 31.8327 66.3525C28.9038 65.2592 26.0768 63.9102 23.3846 62.3212C24.0936 61.8075 24.7876 61.2788 25.4553 60.765C33.289 64.4476 41.8391 66.357 50.4958 66.357C59.1525 66.357 67.7026 64.4476 75.5363 60.765C76.2153 61.3163 76.9055 61.8487 77.607 62.3212C74.9103 63.9179 72.0784 65.2744 69.1439 66.375C70.6908 69.3972 72.4917 72.2826 74.5272 75C83.5414 72.2828 92.0198 68.0331 99.5901 62.4375C101.654 42.5524 96.4184 22.5951 84.8585 6.28125M34.0535 51.1275C31.5661 50.985 29.2351 49.8682 27.5659 48.0192C25.8967 46.1702 25.0238 43.738 25.1365 41.25C25.0676 40.0142 25.2435 38.777 25.654 37.6093C26.0644 36.4415 26.7014 35.3663 27.5285 34.4452C28.3555 33.5241 29.3562 32.7752 30.4734 32.2415C31.5905 31.7077 32.802 31.3997 34.0385 31.335C35.2779 31.3934 36.4934 31.6971 37.6146 32.2284C38.7358 32.7597 39.7403 33.5082 40.5701 34.4304C41.3998 35.3526 42.0382 36.4302 42.4483 37.6009C42.8585 38.7715 43.0321 40.0118 42.9593 41.25C43.075 43.7369 42.2047 46.1691 40.5373 48.0185C38.8699 49.8678 36.54 50.985 34.0535 51.1275M66.9419 51.1275C64.4527 50.9888 62.1191 49.8733 60.4485 48.0235C58.7779 46.1737 57.9055 43.7394 58.0211 41.25C57.9523 40.0139 58.1282 38.7764 58.5389 37.6084C58.9496 36.4405 59.587 35.3651 60.4144 34.4439C61.2418 33.5227 62.243 32.7739 63.3606 32.2404C64.4781 31.7069 65.6901 31.3992 66.9269 31.335C68.167 31.3904 69.3836 31.6921 70.5058 32.2225C71.628 32.7529 72.6333 33.5015 73.463 34.4244C74.2927 35.3474 74.9303 36.4263 75.3384 37.5982C75.7465 38.7701 75.9171 40.0115 75.8401 41.25C75.9579 43.7362 75.0893 46.1684 73.4231 48.018C71.7568 49.8676 69.4277 50.985 66.9419 51.1275" fill="white"/>
</svg>
