<svg width="76" height="75" viewBox="0 0 76 75" fill="none" xmlns="http://www.w3.org/2000/svg">
<path d="M37.9208 6.75C47.937 6.75 49.1224 6.7875 53.0801 6.9675C55.4611 6.9919 57.8202 7.42573 60.0539 8.25C61.6835 8.8512 63.1576 9.80967 64.368 11.055C65.6138 12.265 66.5726 13.7386 67.1741 15.3675C68.0003 17.5977 68.4368 19.9532 68.4645 22.3312C68.6334 26.3025 68.6821 27.4875 68.6821 37.5C68.6821 47.5125 68.6446 48.6975 68.4645 52.6538C68.4368 55.0318 68.0003 57.3873 67.1741 59.6175C66.5499 61.237 65.5932 62.7078 64.3655 63.935C63.1379 65.1622 61.6666 66.1186 60.0464 66.7425C57.8155 67.5685 55.459 68.0048 53.0801 68.0325C49.1262 68.2125 47.937 68.25 37.9208 68.25C27.9046 68.25 26.7154 68.2125 22.7615 68.0325C20.3805 68.008 18.0215 67.5742 15.7876 66.75C14.1581 66.1488 12.684 65.1903 11.4736 63.945C10.2241 62.7336 9.26264 61.2573 8.66002 59.625C7.83388 57.3948 7.39737 55.0393 7.36955 52.6613C7.20073 48.6975 7.15947 47.5125 7.15947 37.5C7.15947 27.4875 7.19698 26.3025 7.37705 22.3463C7.40161 19.9661 7.83559 17.608 8.66002 15.375C9.26145 13.7461 10.2203 12.2725 11.4661 11.0625C12.6779 9.81352 14.1547 8.8524 15.7876 8.25C18.0207 7.42878 20.3784 6.9975 22.7577 6.975C26.7154 6.795 27.9009 6.75 37.9208 6.75ZM37.9208 0C27.7283 0 26.4528 0.045 22.4501 0.225C19.3385 0.287792 16.26 0.877393 13.3455 1.96875C10.8413 2.90931 8.57274 4.3849 6.69805 6.2925C4.78975 8.1665 3.31361 10.4343 2.37271 12.9375C1.28088 15.8509 0.691057 18.9283 0.628314 22.0387C0.448248 26.04 0.406982 27.315 0.406982 37.5C0.406982 47.685 0.451999 48.96 0.632065 52.9613C0.693607 56.0715 1.28216 59.1489 2.37271 62.0625C3.3141 64.5644 4.7902 66.8308 6.69805 68.7037C8.57165 70.6109 10.8389 72.0865 13.3417 73.0275C16.2562 74.1189 19.3347 74.7085 22.4463 74.7712C26.4528 74.955 27.7283 75 37.9208 75C48.1133 75 49.385 74.955 53.3877 74.775C56.4994 74.7123 59.5779 74.1227 62.4923 73.0313C64.9848 72.0679 67.2484 70.5945 69.1379 68.7056C71.0275 66.8168 72.5014 64.554 73.4651 62.0625C74.557 59.1491 75.1468 56.0717 75.2095 52.9613C75.3933 48.96 75.4346 47.685 75.4346 37.5C75.4346 27.315 75.3896 26.04 75.2095 22.0387C75.1468 18.9283 74.557 15.8509 73.4651 12.9375C72.5237 10.4356 71.0476 8.16916 69.1398 6.29625C67.2644 4.38684 64.9944 2.90992 62.4886 1.96875C59.5741 0.877393 56.4956 0.287792 53.384 0.225C49.3813 0.045 48.1058 0 37.9208 0Z" fill="white"/>
<path d="M37.9172 18.2441C34.1072 18.2441 30.3829 19.3735 27.215 21.4894C24.0472 23.6053 21.5781 26.6127 20.1201 30.1313C18.6621 33.65 18.2807 37.5218 19.024 41.2571C19.7672 44.9925 21.6019 48.4236 24.2959 51.1166C26.9899 53.8096 30.4223 55.6436 34.1591 56.3866C37.8958 57.1296 41.769 56.7483 45.2889 55.2908C48.8088 53.8334 51.8173 51.3653 53.934 48.1986C56.0507 45.0319 57.1805 41.3089 57.1805 37.5004C57.1805 34.9716 56.6823 32.4676 55.7142 30.1313C54.7461 27.7951 53.3272 25.6723 51.5384 23.8842C49.7496 22.0961 47.626 20.6776 45.2889 19.7099C42.9518 18.7422 40.4469 18.2441 37.9172 18.2441M37.9172 49.9992C35.4442 49.9992 33.0268 49.2661 30.9707 47.8928C28.9145 46.5194 27.3119 44.5673 26.3656 42.2834C25.4192 39.9996 25.1716 37.4865 25.654 35.062C26.1365 32.6375 27.3273 30.4104 29.0759 28.6624C30.8246 26.9145 33.0525 25.7241 35.4779 25.2418C37.9033 24.7595 40.4173 25.0071 42.702 25.9531C44.9867 26.8991 46.9394 28.5011 48.3133 30.5565C49.6872 32.6119 50.4205 35.0284 50.4205 37.5004C50.4205 40.8153 49.1032 43.9944 46.7583 46.3384C44.4135 48.6823 41.2333 49.9992 37.9172 49.9992" fill="white"/>
<path d="M62.4438 17.4824C62.4438 18.3725 62.1797 19.2425 61.6851 19.9825C61.1904 20.7225 60.4874 21.2993 59.6648 21.6399C58.8422 21.9805 57.9371 22.0696 57.0639 21.896C56.1906 21.7223 55.3886 21.2937 54.759 20.6644C54.1294 20.0351 53.7006 19.2333 53.5269 18.3603C53.3532 17.4874 53.4424 16.5826 53.7831 15.7604C54.1239 14.9381 54.7008 14.2353 55.4411 13.7408C56.1814 13.2464 57.0517 12.9824 57.9421 12.9824C59.136 12.9824 60.2811 13.4566 61.1253 14.3005C61.9695 15.1444 62.4438 16.289 62.4438 17.4824" fill="white"/>
</svg>
