<svg width="93" height="76" viewBox="0 0 93 76" fill="none" xmlns="http://www.w3.org/2000/svg">
<path d="M82.9604 18.6707C83.0167 19.4844 83.0167 20.2982 83.0167 21.1194C83.0665 28.2095 81.7065 35.2388 79.0156 41.7989C76.3247 48.3591 72.3565 54.3193 67.3416 59.3334C62.3268 64.3475 56.3651 68.3155 49.8031 71.0067C43.2411 73.698 36.2095 75.059 29.1168 75.0107C18.8204 75.0178 8.73938 72.0627 0.0773926 66.4982C1.57131 66.6772 3.07444 66.7686 4.57905 66.7719C13.1113 66.7788 21.3981 63.9181 28.1077 58.6494C24.1556 58.5735 20.326 57.2651 17.1541 54.9073C13.9822 52.5494 11.6265 49.2598 10.4162 45.4982C13.2546 46.0454 16.1809 45.9338 18.9693 45.1719C14.6821 44.307 10.8262 41.9859 8.05621 38.6024C5.2862 35.2189 3.77268 30.9815 3.7725 26.6094V26.3694C6.40725 27.8365 9.35607 28.6494 12.3707 28.7394C8.36086 26.0603 5.52265 21.9549 4.43342 17.2582C3.34419 12.5615 4.08575 7.62645 6.50726 3.45693C11.2631 9.30654 17.1968 14.0907 23.9227 17.4986C30.6487 20.9066 38.0166 22.8621 45.5479 23.2382C44.6073 19.1793 45.0306 14.9237 46.7523 11.1295C48.474 7.33526 51.3982 4.21371 55.0728 2.24754C58.7474 0.28137 62.9676 -0.419889 67.0809 0.252197C71.1942 0.924283 74.9714 2.93228 77.8285 5.96568C82.0712 5.12842 86.1398 3.5736 89.8592 1.36818C88.4446 5.75293 85.4851 9.4749 81.5311 11.8419C85.2866 11.3996 88.954 10.3946 92.4101 8.86068C89.8689 12.6664 86.6689 15.9885 82.9604 18.6707V18.6707Z" fill="white"/>
</svg>
