<svg xmlns="http://www.w3.org/2000/svg" xmlns:xlink="http://www.w3.org/1999/xlink" width="234.424" height="24" viewBox="0 0 234.424 24">
  <defs>
    <clipPath id="clip-path">
      <rect id="사각형_71" data-name="사각형 71" width="234.424" height="24" transform="translate(0 0)" fill="current"/>
    </clipPath>
  </defs>
  <g id="logo" transform="translate(0 0)">
    <g id="그룹_21" data-name="그룹 21" transform="translate(0 0)" clip-path="url(#clip-path)">
      <path id="패스_12" data-name="패스 12" d="M25.654,60.146a24.161,24.161,0,0,0-2.7-.064,20.121,20.121,0,0,0-3.072.3,18.951,18.951,0,0,0-5.8,2.052c-.3.164-1.021.481-1.18.77-.085.155-.205.376-.343.646a6.025,6.025,0,0,0-.541,1.218c-.08.327-.052.512-.128.941a6.181,6.181,0,0,1-.316,1.135l.764.638a.6.6,0,0,1-.077-.1c-.882-1.359,1.6-3.294,2.5-3.955A13.9,13.9,0,0,1,19.931,61.4a17.245,17.245,0,0,1,5.844-.233l-.121-1.018" transform="translate(-8.663 -44.967)" fill="current"/>
      <path id="패스_13" data-name="패스 13" d="M98.851,2.089l-.034-.172c-.719.069-1.336.1-1.986.1-.617,0-1.507-.034-2.329-.1l-.035.172c.994.345,1.3.827.857,1.929-1.4,3.514-5.445,12.575-7.6,17.227-2.055-4.41-7.089-15.194-8.082-17.571-.411-.9-.137-1.275.822-1.585l-.034-.172c-.925.069-2.295.1-2.98.1s-1.815-.034-2.706-.1l-.034.172a3.849,3.849,0,0,1,2.055,1.964c2.021,4,7.226,15.09,9.829,20.912h.479C89.948,18.35,94.639,8.532,97,3.778a2.973,2.973,0,0,1,1.849-1.689" transform="translate(-55.924 -1.435)" fill="current"/>
      <path id="패스_14" data-name="패스 14" d="M173.1,21.872c-2.02-4-7.226-15.124-9.829-20.912h-.479c-2.877,6.58-7.568,16.433-9.932,21.187a3.074,3.074,0,0,1-1.849,1.689l.034.172a19.8,19.8,0,0,1,2.124-.1,16.232,16.232,0,0,1,2.192.138l.034-.206c-.993-.345-1.3-.827-.856-1.964.479-1.171,1.267-2.962,2.157-5h11.1c1.13,2.446,2.054,4.479,2.431,5.375.411.861.137,1.24-.822,1.585l.069.206a27.153,27.153,0,0,1,2.877-.138c.856,0,1.883.034,2.74.1l.034-.172a3.934,3.934,0,0,1-2.021-1.964m-15.959-6.063c1.678-3.859,3.7-8.337,5-11.128,1.2,2.516,3.356,7.166,5.171,11.128Z" transform="translate(-113.044 -0.719)" fill="current"/>
      <path id="패스_15" data-name="패스 15" d="M276.964,2.021a14.172,14.172,0,0,1-1.712-.1l-.034.172A1.41,1.41,0,0,1,276.279,3.5c.1,1.722.24,4.616.24,9.819,0,2.825.034,5.409.069,7.338C272,15.594,266.313,9.221,260.08,1.986c-.582.034-1.165.034-1.747.034-.514,0-1.2-.034-2.02-.1l-.035.172a2,2,0,0,1,1.267,2.068c.035.93.069,3.789.069,9.164,0,5.34-.1,8.1-.205,9.819a1.4,1.4,0,0,1-1.062,1.413l.034.172a17.245,17.245,0,0,1,1.781-.1,14.185,14.185,0,0,1,1.713.1l.034-.172a1.476,1.476,0,0,1-1.062-1.413c-.1-1.722-.24-4.65-.24-9.819,0-4.306,0-6.753-.068-9.027,5.891,6.58,11.781,13.127,18.425,20.912h.685c-.1-2.274-.137-6.545-.137-11.886,0-5.375.1-8.1.206-9.819a1.346,1.346,0,0,1,1.062-1.413l-.035-.172a17.254,17.254,0,0,1-1.781.1" transform="translate(-191.846 -1.435)" fill="current"/>
      <path id="패스_16" data-name="패스 16" d="M356.647,2.329a16.469,16.469,0,0,1-.822,2.722l.171.138c2.123-1.516,5.113-2.033,8.264-2.033h.548V13.629c0,5.34-.034,8.648-.068,9.681a1.424,1.424,0,0,1-1.062,1.551l.034.172c.685-.069,1.644-.1,2.4-.1.787,0,1.78.034,2.431.1l.035-.172a1.423,1.423,0,0,1-1.062-1.551c-.034-1.033-.069-4.34-.069-9.681V3.156h.548c3.151,0,6.106.517,8.23,2.033l.171-.172a20.073,20.073,0,0,1-.822-2.688Z" transform="translate(-266.365 -1.743)" fill="current"/>
      <path id="패스_17" data-name="패스 17" d="M503.325,13.332c-.651.069-1.61.1-2.4.1s-1.747-.034-2.4-.1l-.034.173a1.423,1.423,0,0,1,1.062,1.55c.019.554.038,1.639.051,2.766a4.681,4.681,0,0,1-.659,2.209,4.757,4.757,0,0,1-2.258,1.923c-.153.056-.3.118-.46.168l-.036.011a12.56,12.56,0,0,1-3.8.57c-5.307,0-9.794-4.237-9.794-10.817,0-6.649,4.521-10.817,9.794-10.817,4.076,0,7.329,1.654,8.939,5.03l.205-.069-.137-2.791C499.318,1.1,495.791,0,492.4,0c-6.814,0-12.7,4.651-12.7,11.886,0,7.2,5.89,11.886,12.7,11.886a11.71,11.71,0,0,0,9.829-4.961c0-1.344.034-2.756.069-3.789a1.415,1.415,0,0,1,1.061-1.516Z" transform="translate(-359.092 0)" fill="current"/>
      <path id="패스_18" data-name="패스 18" d="M598.257,21.872c-2.02-4-7.225-15.124-9.829-20.912h-.479c-2.877,6.58-7.568,16.433-9.932,21.187a3.074,3.074,0,0,1-1.849,1.689l.034.172a19.806,19.806,0,0,1,2.124-.1,16.24,16.24,0,0,1,2.192.138l.034-.206c-.993-.345-1.3-.827-.856-1.964.479-1.171,1.267-2.962,2.157-5h11.1c1.13,2.446,2.054,4.479,2.431,5.375.411.861.137,1.24-.822,1.585l.069.206A27.156,27.156,0,0,1,597.5,23.9c.856,0,1.883.034,2.74.1l.034-.172a3.933,3.933,0,0,1-2.021-1.964M582.3,15.808c1.678-3.859,3.7-8.337,5-11.128,1.2,2.516,3.357,7.166,5.171,11.128Z" transform="translate(-431.31 -0.719)" fill="current"/>
      <path id="패스_19" data-name="패스 19" d="M704.551,24.762a3.366,3.366,0,0,1-1.009-.225,4.749,4.749,0,0,1-1.419-.855,14.214,14.214,0,0,1-2.63-3.438,16.249,16.249,0,0,0-2.922-4.394,6.008,6.008,0,0,0-3.925-1.482,7.988,7.988,0,0,0,3.173-.426,5.7,5.7,0,0,0,2.984-2.309,5.913,5.913,0,0,0,.966-3.4,1.336,1.336,0,0,0-.011-.194,5.462,5.462,0,0,0-.187-1.183,5.936,5.936,0,0,0-1.6-2.649,7.861,7.861,0,0,0-5.838-2.3h-1.576c-1.6,0-5.98.038-7.259.1v.172c.582.069,1.028.379,1.062,1.447.034,1,.068,4.306.068,9.681,0,5.34-.034,8.647-.068,9.681a1.423,1.423,0,0,1-1.062,1.551l.034.172c.686-.069,1.644-.1,2.4-.1.788,0,1.781.034,2.432.1l.034-.172A1.423,1.423,0,0,1,687.133,23c-.034-1.033-.068-4.34-.068-9.061v-1c.062-9.693.094-10.042.1-10.276,3.317-.027,6.909-.587,9.057,2.569a5.382,5.382,0,0,1,.9,4.174,5.036,5.036,0,0,1-2.041,3.633,9.24,9.24,0,0,1-4.689,1.039c-.294.01-.443.01-.612.008v.226c.094.005-.008.014.144.032,2.414.286,3.918,2,5,4.043a20.007,20.007,0,0,0,2.752,4.636c2.013,2.13,5.349,3.112,7.992,1.849l-.092-.232a3.069,3.069,0,0,1-1.021.121" transform="translate(-511.505 -1.434)" fill="current"/>
      <path id="패스_20" data-name="패스 20" d="M784.3,2.347c-2.363,0-4.178.035-5.514.1v.172c.583.069,1.028.379,1.062,1.447.034,1,.069,4.306.069,9.681,0,5.34-.035,8.647-.069,9.681s-.445,1.344-1.062,1.447v.172c1.918.138,3.7.172,5.617.172,10.274,0,13.7-6.27,13.7-11.782,0-8.234-6.13-11.094-13.8-11.094m-.206,21.981c-.48,0-.959,0-1.438-.035-.069-1.894-.1-5.064-.1-10.542,0-5.03.034-8.165.068-10.577.48-.034.857-.034,1.267-.034,8.425,0,11.336,4.582,11.336,10.3,0,7.028-3.527,10.887-11.13,10.887" transform="translate(-582.983 -1.757)" fill="current"/>
      <path id="패스_21" data-name="패스 21" d="M882.757,22.191c-2.26,1.689-5.219,2.033-9.124,2.033h-3.489c-.034-1.31-.068-5.271-.068-10.37,7.534.034,9.173-.191,9.584,1.049l.171-.034a6.288,6.288,0,0,1-.136-1.463,7.053,7.053,0,0,1,.136-1.525l-.171-.034c-.377,1.137-2.05,1.076-9.584,1.111,0-4.616.034-8.2.068-9.612.994-.068,2.853-.1,3.778-.1,3.082,0,5.753.344,7.705,2.032l.2-.137a17.194,17.194,0,0,1-.822-2.688H868.775c-.788,0-1.746-.034-2.432-.1l-.034.172a1.423,1.423,0,0,1,1.062,1.551c.034,1,.068,4.306.068,9.681,0,5.34-.034,8.648-.068,9.681a1.423,1.423,0,0,1-1.062,1.551l.034.172c.686-.069,1.644-.1,2.432-.1h13.4c.308-.792.409-2.067.752-2.722Z" transform="translate(-648.504 -1.757)" fill="current"/>
      <path id="패스_22" data-name="패스 22" d="M22.089,21.872c-2.021-4-7.226-15.124-9.828-20.912h-.48C8.9,7.54,4.212,17.393,1.85,22.147A3.077,3.077,0,0,1,0,23.836l.034.172a19.879,19.879,0,0,1,2.124-.1,16.246,16.246,0,0,1,2.192.138l.034-.206c-.993-.345-1.3-.827-.856-1.964.479-1.171,1.267-2.962,2.158-5l.445-1.068c1.678-3.859,3.7-8.337,5-11.128,1.2,2.515,3.356,7.166,5.171,11.128l.479,1.068c1.131,2.446,2.056,4.479,2.432,5.375.411.861.137,1.24-.822,1.585l.069.206a27.165,27.165,0,0,1,2.877-.138c.856,0,1.884.034,2.74.1l.034-.172a3.936,3.936,0,0,1-2.021-1.964" transform="translate(0 -0.719)" fill="current"/>
    </g>
  </g>
</svg>
